<svg width="20" height="21" viewBox="0 0 20 21" fill="none" xmlns="http://www.w3.org/2000/svg">
<rect y="0.5" width="20" height="20" rx="2" fill="white"/>
<path d="M12.5 13C13.8807 13 15 11.8807 15 10.5C15 9.11929 13.8807 8 12.5 8C11.1193 8 10 9.11929 10 10.5C10 11.8807 11.1193 13 12.5 13Z" fill="#015EA5"/>
<path d="M9.28523 10.5C9.28546 10.0477 9.38099 9.60053 9.5656 9.18762C9.7502 8.77471 10.0197 8.40534 10.3567 8.10357C9.9836 7.99271 9.58982 7.97048 9.20665 8.03865C8.82349 8.10681 8.46153 8.26349 8.14959 8.49621C7.83766 8.72893 7.58437 9.03127 7.40988 9.37914C7.23539 9.72701 7.14453 10.1108 7.14453 10.5C7.14453 10.8892 7.23539 11.273 7.40988 11.6209C7.58437 11.9687 7.83766 12.2711 8.14959 12.5038C8.46153 12.7365 8.82349 12.8932 9.20665 12.9614C9.58982 13.0295 9.9836 13.0073 10.3567 12.8964C10.0197 12.5947 9.7502 12.2253 9.5656 11.8124C9.38099 11.3995 9.28546 10.9523 9.28523 10.5V10.5Z" fill="#00BAEB"/>
<path d="M6.42857 10.5C6.42815 10.0212 6.5351 9.54837 6.74153 9.11634C6.94797 8.68431 7.24864 8.30406 7.62143 8.00357C7.58214 8 7.53929 8 7.5 8C6.83696 8 6.20107 8.26339 5.73223 8.73223C5.26339 9.20107 5 9.83696 5 10.5C5 11.163 5.26339 11.7989 5.73223 12.2678C6.20107 12.7366 6.83696 13 7.5 13C7.53929 13 7.58214 13 7.62143 12.9964C7.24864 12.6959 6.94797 12.3157 6.74153 11.8837C6.5351 11.4516 6.42815 10.9788 6.42857 10.5V10.5Z" fill="#D1BCE3"/>
</svg>
