<svg width="20" height="21" viewBox="0 0 20 21" fill="none" xmlns="http://www.w3.org/2000/svg">
<rect y="0.5" width="20" height="20" rx="2" fill="white"/>
<g clip-path="url(#clip0_12721_5257)">
<path d="M15.4486 12.6136L11.6832 10.8364C11.6791 10.8343 11.6745 10.8331 11.6699 10.833C11.6661 10.8331 11.6623 10.834 11.6589 10.8356C11.6555 10.8371 11.6524 10.8394 11.6498 10.8422C11.6452 10.8463 11.6421 10.8518 11.641 10.8579C11.64 10.864 11.641 10.8702 11.644 10.8756L13.4212 14.641C13.4238 14.6465 13.428 14.6511 13.4333 14.6541C13.4386 14.6571 13.4448 14.6583 13.4508 14.6577C13.4569 14.6571 13.4626 14.6546 13.4672 14.6506C13.4718 14.6466 13.475 14.6413 13.4765 14.6354L13.8176 13.2335C13.8306 13.1792 13.8584 13.1297 13.8979 13.0902C13.9373 13.0508 13.9869 13.023 14.0411 13.0099L15.443 12.6688C15.4489 12.6674 15.4542 12.6641 15.4582 12.6595C15.4622 12.655 15.4647 12.6492 15.4653 12.6432C15.4659 12.6371 15.4647 12.631 15.4617 12.6257C15.4587 12.6204 15.4541 12.6162 15.4486 12.6136H15.4486Z" fill="#D1BCE3"/>
<path d="M7.63149 7.05859C5.92201 7.05859 4.53125 8.44935 4.53125 10.1588C4.53125 11.8683 5.92201 13.2591 7.63149 13.2591C9.34097 13.2591 10.7317 11.8683 10.7317 10.1588C10.7317 8.44937 9.34096 7.05859 7.63149 7.05859ZM6.69288 10.4107C6.69287 10.4618 6.67257 10.5109 6.63643 10.547C6.60029 10.5831 6.55127 10.6034 6.50016 10.6034H5.99638C5.94526 10.6034 5.89624 10.5831 5.8601 10.547C5.82396 10.5109 5.80366 10.4618 5.80366 10.4107V9.90695C5.80366 9.85583 5.82396 9.80682 5.8601 9.77067C5.89624 9.73453 5.94526 9.71423 5.99638 9.71423H6.50015C6.55126 9.71423 6.60028 9.73453 6.63642 9.77067C6.67257 9.80682 6.69287 9.85583 6.69287 9.90695L6.69288 10.4107ZM8.0761 10.4107C8.0761 10.436 8.07112 10.4611 8.06143 10.4845C8.05175 10.5079 8.03755 10.5291 8.01965 10.547C8.00176 10.5649 7.98051 10.5791 7.95713 10.5888C7.93375 10.5985 7.90868 10.6034 7.88338 10.6034H7.3796C7.35429 10.6034 7.32923 10.5985 7.30585 10.5888C7.28247 10.5791 7.26122 10.5649 7.24333 10.547C7.22543 10.5291 7.21124 10.5079 7.20155 10.4845C7.19187 10.4611 7.18688 10.436 7.18688 10.4107V9.90695C7.18688 9.88164 7.19187 9.85658 7.20155 9.8332C7.21124 9.80981 7.22543 9.78857 7.24333 9.77067C7.26122 9.75278 7.28247 9.73858 7.30585 9.72889C7.32923 9.71921 7.35429 9.71423 7.3796 9.71423H7.88337C7.90868 9.71423 7.93374 9.71921 7.95712 9.72889C7.98051 9.73858 8.00175 9.75277 8.01965 9.77067C8.03755 9.78857 8.05174 9.80981 8.06143 9.83319C8.07111 9.85658 8.0761 9.88164 8.0761 9.90695L8.0761 10.4107ZM9.45932 10.4107C9.45932 10.436 9.45434 10.4611 9.44465 10.4845C9.43497 10.5079 9.42077 10.5291 9.40288 10.547C9.38498 10.5649 9.36374 10.5791 9.34035 10.5888C9.31697 10.5985 9.29191 10.6034 9.2666 10.6034H8.76283C8.71172 10.6034 8.6627 10.5831 8.62655 10.547C8.59041 10.5109 8.5701 10.4618 8.5701 10.4107V9.90695C8.5701 9.85583 8.59041 9.80681 8.62655 9.77067C8.6627 9.73453 8.71172 9.71423 8.76283 9.71423H9.2666C9.29191 9.71423 9.31697 9.71921 9.34035 9.72889C9.36373 9.73858 9.38498 9.75278 9.40287 9.77067C9.42077 9.78857 9.43496 9.80981 9.44465 9.8332C9.45433 9.85658 9.45932 9.88164 9.45932 9.90695L9.45932 10.4107Z" fill="#00BAEB"/>
<path d="M9.66919 6.34132C9.03789 6.34007 8.41606 6.49479 7.85896 6.79174C9.61345 6.90978 11.0048 8.37491 11.0048 10.1589C11.0048 11.9849 9.5471 13.4769 7.73438 13.5322C8.45761 13.9509 9.29727 14.1236 10.1271 14.0241C10.9569 13.9247 11.7319 13.5585 12.3357 12.9806L11.3975 10.993C11.3708 10.9363 11.3622 10.8728 11.3729 10.8111C11.3837 10.7494 11.4132 10.6925 11.4575 10.6482C11.5018 10.6039 11.5587 10.5744 11.6204 10.5637C11.6821 10.5529 11.7457 10.5615 11.8023 10.5883L13.3573 11.3223C13.4684 10.9573 13.5247 10.5779 13.5243 10.1964C13.5243 8.07071 11.7949 6.34132 9.66919 6.34132Z" fill="#015EA5"/>
</g>
<defs>
<clipPath id="clip0_12721_5257">
<rect width="11.4286" height="11.4286" fill="white" transform="translate(4.28906 4.78564)"/>
</clipPath>
</defs>
</svg>
