<svg width="20" height="20" viewBox="0 0 20 20" fill="none" xmlns="http://www.w3.org/2000/svg">
<path d="M17.0343 15.547L16.5153 14.9693C15.699 14.0605 15.243 12.8846 15.2334 11.6631L15.2333 11.6583H15.2333V10.6H10.8333C10.4532 10.6 10.0886 10.449 9.81982 10.1802C9.55102 9.91138 9.4 9.54681 9.4 9.16667V8.33333V7.73333H10H11.9V5V4.4H12.5H14.6798L15.4282 3.65157L15.8491 3.23072L16.2733 3.64816C17.1161 4.47741 17.7853 5.46615 18.242 6.55672C18.6987 7.64717 18.9337 8.8176 18.9333 9.9998L17.0343 15.547ZM17.0343 15.547L17.4623 14.899C18.4223 13.4456 18.9338 11.742 18.9333 10.0002L17.0343 15.547ZM1.7075 10.8025L1.11037 10.8611C1.31205 12.9162 2.2184 14.8382 3.67569 16.3012C5.13297 17.7642 7.05147 18.678 9.10574 18.8877L9.76667 18.9552V18.2908V15C9.76667 14.6199 9.61566 14.2553 9.34686 13.9865C9.07805 13.7177 8.71348 13.5667 8.33334 13.5667H5.3202L2.13177 10.3782L1.7075 10.8025ZM5.33741 12.9243L5.51314 13.1H5.76167H8.33334C8.83725 13.1 9.32052 13.3002 9.67684 13.6565C10.0332 14.0128 10.2333 14.4961 10.2333 15V18.2908H10.8333L10.8931 18.8879C12.9456 18.6824 14.8632 17.771 16.3185 16.3092L16.7379 15.888L16.3207 15.4647C15.3233 14.4527 14.7649 13.0883 14.7667 11.6674L14.7674 11.0667H14.1667H10.8333C10.3294 11.0667 9.84615 10.8665 9.48983 10.5102C9.13352 10.1539 8.93334 9.67058 8.93334 9.16667V7.26667H10.8333H11.4333V6.66667V3.93333H14.2383H14.4869L14.6626 3.7576L14.9709 3.44926L15.4928 2.92735L14.8753 2.52303C13.6407 1.71459 12.2246 1.22532 10.7542 1.0991C9.2838 0.972883 7.80507 1.21368 6.45068 1.79987C5.09628 2.38607 3.9086 3.29934 2.9942 4.45773C2.07979 5.61612 1.46727 6.98339 1.21158 8.43688L1.15749 8.74435L1.37824 8.9651L5.33741 12.9243ZM4.77764 2.18419C6.32338 1.15136 8.14065 0.600063 9.99969 0.6C12.4919 0.602782 14.8813 1.59406 16.6436 3.35636C18.4059 5.11859 19.3971 7.50785 19.4 10C19.4 11.8591 18.8487 13.6765 17.8158 15.2224C16.7829 16.7682 15.3149 17.973 13.5972 18.6845C11.8796 19.3959 9.98958 19.5821 8.16616 19.2194C6.34273 18.8567 4.66781 17.9614 3.3532 16.6468C2.03859 15.3322 1.14332 13.6573 0.780623 11.8338C0.417922 10.0104 0.604073 8.1204 1.31554 6.40278C2.027 4.68515 3.23182 3.21707 4.77764 2.18419Z" fill="#003A75" stroke="#003A75" stroke-width="1.2"/>
</svg>
