<svg width="20" height="20" viewBox="0 0 20 20" fill="none" xmlns="http://www.w3.org/2000/svg">
<g clip-path="url(#clip0_12351_83431)">
<path d="M18.3333 0H10.8333V1.66667H17.155L0 18.8217L1.17833 20L18.3333 2.845V9.16667H20V1.66667C20 1.22464 19.8244 0.800716 19.5118 0.488155C19.1993 0.175595 18.7754 0 18.3333 0V0Z" fill="#003A75"/>
<path d="M4.99935 8.33268C5.65862 8.33268 6.30309 8.13719 6.85125 7.77092C7.39941 7.40464 7.82666 6.88405 8.07895 6.27496C8.33124 5.66587 8.39725 4.99565 8.26863 4.34905C8.14002 3.70245 7.82255 3.1085 7.35637 2.64233C6.8902 2.17615 6.29625 1.85868 5.64965 1.73007C5.00305 1.60145 4.33282 1.66746 3.72374 1.91975C3.11465 2.17204 2.59406 2.59929 2.22778 3.14745C1.86151 3.69561 1.66602 4.34008 1.66602 4.99935C1.66602 5.88341 2.01721 6.73125 2.64233 7.35637C3.26745 7.98149 4.11529 8.33268 4.99935 8.33268ZM4.99935 3.33268C5.32898 3.33268 5.65122 3.43043 5.9253 3.61357C6.19938 3.7967 6.413 4.057 6.53915 4.36154C6.66529 4.66609 6.6983 5.0012 6.63399 5.3245C6.56968 5.6478 6.41095 5.94477 6.17786 6.17786C5.94477 6.41095 5.6478 6.56968 5.3245 6.63399C5.0012 6.6983 4.66609 6.6653 4.36154 6.53915C4.057 6.413 3.7967 6.19938 3.61357 5.9253C3.43043 5.65122 3.33268 5.32899 3.33268 4.99935C3.33268 4.55732 3.50828 4.1334 3.82084 3.82084C4.1334 3.50828 4.55732 3.33268 4.99935 3.33268Z" fill="#003A75"/>
<path d="M14.9994 11.666C14.3401 11.666 13.6956 11.8615 13.1475 12.2278C12.5993 12.5941 12.172 13.1147 11.9198 13.7237C11.6675 14.3328 11.6014 15.003 11.7301 15.6497C11.8587 16.2963 12.1762 16.8902 12.6423 17.3564C13.1085 17.8225 13.7024 18.14 14.3491 18.2686C14.9957 18.3973 15.6659 18.3312 16.275 18.0789C16.884 17.8267 17.4046 17.3994 17.7709 16.8513C18.1372 16.3031 18.3327 15.6586 18.3327 14.9993C18.3327 14.1153 17.9815 13.2674 17.3564 12.6423C16.7313 12.0172 15.8834 11.666 14.9994 11.666ZM14.9994 16.666C14.6697 16.666 14.3475 16.5683 14.0734 16.3851C13.7993 16.202 13.5857 15.9417 13.4596 15.6372C13.3334 15.3326 13.3004 14.9975 13.3647 14.6742C13.429 14.3509 13.5878 14.0539 13.8208 13.8208C14.0539 13.5878 14.3509 13.429 14.6742 13.3647C14.9975 13.3004 15.3326 13.3334 15.6372 13.4595C15.9417 13.5857 16.202 13.7993 16.3851 14.0734C16.5683 14.3475 16.666 14.6697 16.666 14.9993C16.666 15.4414 16.4904 15.8653 16.1779 16.1779C15.8653 16.4904 15.4414 16.666 14.9994 16.666Z" fill="#003A75"/>
</g>
<defs>
<clipPath id="clip0_12351_83431">
<rect width="20" height="20" fill="white"/>
</clipPath>
</defs>
</svg>
