<svg width="18" height="18" viewBox="0 0 18 18" fill="none" xmlns="http://www.w3.org/2000/svg">
<path d="M17.4864 8.86431L9.93953 1.32134L9.43367 0.815479C9.31841 0.70098 9.16254 0.636719 9.00008 0.636719C8.83762 0.636719 8.68175 0.70098 8.56649 0.815479L0.513753 8.86431C0.395649 8.98195 0.30231 9.12206 0.239245 9.27637C0.17618 9.43068 0.144667 9.59606 0.146565 9.76274C0.154378 10.4502 0.726643 10.9991 1.41414 10.9991H2.24422V17.3604H15.7559V10.9991H16.6036C16.9376 10.9991 17.252 10.8682 17.4884 10.6319C17.6047 10.5159 17.6969 10.378 17.7596 10.2261C17.8223 10.0742 17.8543 9.91142 17.8536 9.74712C17.8536 9.41509 17.7227 9.10063 17.4864 8.86431V8.86431ZM10.0938 15.9541H7.90633V11.9698H10.0938V15.9541ZM14.3497 9.59282V15.9541H11.3438V11.501C11.3438 11.0694 10.9942 10.7198 10.5626 10.7198H7.43758C7.00594 10.7198 6.65633 11.0694 6.65633 11.501V15.9541H3.65047V9.59282H1.77547L9.00203 2.37212L9.45321 2.82329L16.2266 9.59282H14.3497Z" fill="#003A75"/>
</svg>
