<svg width="18" height="21" viewBox="0 0 18 21" fill="none" xmlns="http://www.w3.org/2000/svg">
<path d="M8.96402 20.4511L8.38312 19.9532C7.5823 19.2826 0.589844 13.2437 0.589844 8.82633C0.589844 4.20141 4.3391 0.452148 8.96402 0.452148C13.5889 0.452148 17.3382 4.20141 17.3382 8.82633C17.3382 13.2437 10.3457 19.2827 9.54824 19.9565L8.96402 20.4511ZM8.96402 2.26289C5.34086 2.26699 2.40473 5.20313 2.40062 8.82629C2.40062 11.6014 6.70266 16.0345 8.96402 18.0635C11.2254 16.0337 15.5274 11.598 15.5274 8.82629C15.5233 5.20313 12.5872 2.26703 8.96402 2.26289Z" fill="#003A75"/>
<path d="M8.96398 12.1457C7.1307 12.1457 5.64453 10.6596 5.64453 8.82629C5.64453 6.99301 7.1307 5.50684 8.96398 5.50684C10.7973 5.50684 12.2834 6.99301 12.2834 8.82629C12.2834 10.6596 10.7973 12.1457 8.96398 12.1457ZM8.96398 7.16652C8.04734 7.16652 7.30426 7.90961 7.30426 8.82625C7.30426 9.74289 8.04734 10.486 8.96398 10.486C9.88063 10.486 10.6237 9.74289 10.6237 8.82625C10.6237 7.90961 9.88066 7.16652 8.96398 7.16652Z" fill="url(#paint0_linear_12674_241)"/>
<defs>
<linearGradient id="paint0_linear_12674_241" x1="5.7672" y1="8.11098" x2="13.7772" y2="9.91872" gradientUnits="userSpaceOnUse">
<stop stop-color="#003660"/>
<stop offset="0.9987" stop-color="#005697"/>
</linearGradient>
</defs>
</svg>
