<svg width="20" height="20" viewBox="0 0 20 20" fill="none" xmlns="http://www.w3.org/2000/svg">
<g clip-path="url(#clip0_12299_86665)">
<path d="M0 2.5V9.16667H9.16667V0H2.5C1.83696 0 1.20107 0.263392 0.732233 0.732233C0.263392 1.20107 0 1.83696 0 2.5H0ZM7.5 7.5H1.66667V2.5C1.66667 2.27899 1.75446 2.06702 1.91074 1.91074C2.06702 1.75446 2.27899 1.66667 2.5 1.66667H7.5V7.5Z" fill="#003A75"/>
<path d="M0 17.4997C0 18.1627 0.263392 18.7986 0.732233 19.2674C1.20107 19.7363 1.83696 19.9997 2.5 19.9997H9.16667V10.833H0V17.4997ZM1.66667 12.4997H7.5V18.333H2.5C2.27899 18.333 2.06702 18.2452 1.91074 18.0889C1.75446 17.9326 1.66667 17.7207 1.66667 17.4997V12.4997Z" fill="#003A75"/>
<path d="M10.834 10.833V19.9997H17.5006C18.1637 19.9997 18.7996 19.7363 19.2684 19.2674C19.7372 18.7986 20.0006 18.1627 20.0006 17.4997V10.833H10.834ZM18.334 17.4997C18.334 17.7207 18.2462 17.9326 18.0899 18.0889C17.9336 18.2452 17.7217 18.333 17.5006 18.333H12.5006V12.4997H18.334V17.4997Z" fill="#003A75"/>
<path d="M14.1673 9.16634H15.834V5.83301H19.1673V4.16634H15.834V0.833008H14.1673V4.16634H10.834V5.83301H14.1673V9.16634Z" fill="#003A75"/>
</g>
<defs>
<clipPath id="clip0_12299_86665">
<rect width="20" height="20" fill="white"/>
</clipPath>
</defs>
</svg>
