<svg width="20" height="19" viewBox="0 0 20 19" fill="none" xmlns="http://www.w3.org/2000/svg">
<path d="M17.5 0.27832H2.5C1.83696 0.27832 1.20107 0.541712 0.732233 1.01055C0.263392 1.47939 0 2.11528 0 2.77832L0 18.6117H20V2.77832C20 2.11528 19.7366 1.47939 19.2678 1.01055C18.7989 0.541712 18.163 0.27832 17.5 0.27832V0.27832ZM2.5 1.94499H17.5C17.721 1.94499 17.933 2.03278 18.0893 2.18906C18.2455 2.34535 18.3333 2.55731 18.3333 2.77832V3.33415L11.7683 9.89999C11.2987 10.3677 10.6628 10.6304 10 10.6304C9.33715 10.6304 8.70131 10.3677 8.23167 9.89999L1.66667 3.33415V2.77832C1.66667 2.55731 1.75446 2.34535 1.91074 2.18906C2.06702 2.03278 2.27899 1.94499 2.5 1.94499V1.94499ZM1.66667 16.945V5.69499L7.05333 11.0783C7.83552 11.8585 8.89521 12.2967 10 12.2967C11.1048 12.2967 12.1645 11.8585 12.9467 11.0783L18.3333 5.69499V16.945H1.66667Z" fill="#003A75"/>
</svg>
