<svg width="20" height="21" viewBox="0 0 20 21" fill="none" xmlns="http://www.w3.org/2000/svg">
<g clip-path="url(#clip0_12299_83058)">
<path d="M11.5995 14.548L11.9718 14.7056L12.2578 14.4197L14.6777 11.9998L19.05 16.3721L16.8327 18.5894C16.8325 18.5896 16.8322 18.5899 16.832 18.5901C16.4277 18.9923 15.9478 19.3102 15.4198 19.5255C14.8915 19.741 14.3258 19.8495 13.7552 19.8447V19.8446H13.7502C10.9564 19.8446 7.66294 18.0389 5.03443 15.4104C2.40592 12.7819 0.600163 9.48841 0.600182 6.69463L0.600143 6.68976C0.595502 6.11907 0.704073 5.55312 0.919576 5.02466C1.13497 4.49647 1.45291 4.01622 1.85502 3.61164C1.85522 3.61144 1.85543 3.61123 1.85563 3.61102L4.07243 1.39493L8.44134 5.76734L6.03136 8.18158L5.74668 8.46676L5.90296 8.83816C6.98545 11.4109 9.02932 13.4595 11.5995 14.548ZM16.5005 18.2629L16.5029 18.2604L17.9662 16.7963L18.3902 16.372L17.9661 15.9479L15.1019 13.0837L14.6776 12.6594L14.2533 13.0838L12.0898 15.248L11.948 15.194L11.948 15.194L11.9437 15.1924C10.4157 14.6234 9.02792 13.7327 7.87428 12.5805C6.72063 11.4284 5.8281 10.0417 5.25717 8.51453L5.25731 8.51448L5.25244 8.50227L5.19476 8.35773L7.36109 6.1914L7.78536 5.76714L7.36109 5.34287L4.49693 2.4787L4.07266 2.05444L3.6484 2.4787L2.18423 3.94287L2.18423 3.94287L2.18207 3.94504C1.82299 4.30781 1.53951 4.73826 1.34808 5.21143C1.15707 5.68353 1.06149 6.18878 1.06683 6.69799C1.06829 9.52493 2.91676 12.6887 5.33642 15.1084C7.75608 17.528 10.9199 19.3765 13.7468 19.378C14.2561 19.3833 14.7615 19.2877 15.2337 19.0967C15.7069 18.9053 16.1375 18.6219 16.5005 18.2629ZM13.1002 5.88329V2.7113H13.5668V5.12047V6.5721L14.5917 5.54409C14.9772 5.15746 15.4154 4.71689 15.8685 4.26128C16.0632 4.06549 16.2607 3.86692 16.458 3.66866L16.4582 3.66849C17.0234 3.09992 17.585 2.53549 18.067 2.05094C18.3348 1.78173 18.5781 1.53717 18.7839 1.33026L19.1128 1.65917C18.5354 2.23824 17.6652 3.11255 16.7855 3.99744L16.7843 3.99866C16.1386 4.65184 15.4914 5.30484 14.9421 5.85338L13.9159 6.87797H15.366H17.7335V7.34464L14.5835 7.34463L14.5806 7.34464C14.1903 7.34653 13.8153 7.19352 13.5377 6.91919C13.2606 6.64531 13.1033 6.27284 13.1002 5.88329Z" fill="url(#paint0_linear_12299_83058)" stroke="#003A75" stroke-width="1.2"/>
</g>
<defs>
<linearGradient id="paint0_linear_12299_83058" x1="0.368835" y1="8.3116" x2="24.4527" y2="13.746" gradientUnits="userSpaceOnUse">
<stop stop-color="#003660"/>
<stop offset="0.9987" stop-color="#005697"/>
</linearGradient>
<clipPath id="clip0_12299_83058">
<rect width="20" height="20" fill="white" transform="translate(0 0.444336)"/>
</clipPath>
</defs>
</svg>
