<svg width="20" height="20" viewBox="0 0 20 20" fill="none" xmlns="http://www.w3.org/2000/svg">
<path d="M2.41376 18.3333H8.41437C8.82859 18.3333 9.16406 18.0002 9.16406 17.5888V8.2445C9.16406 7.83315 8.82859 7.5 8.41437 7.5H2.41376C1.99953 7.49899 1.66406 7.83315 1.66406 8.2445V17.5888C1.66406 18.0002 1.99953 18.3333 2.41376 18.3333Z" fill="#002448"/>
<path d="M17.5784 7.5H11.5778C11.1636 7.5 10.8281 7.83315 10.8281 8.2445V17.5888C10.8281 18.0002 11.1636 18.3333 11.5778 18.3333H17.5784C17.9927 18.3343 18.3281 18.0012 18.3281 17.5898V8.24552C18.3281 7.83416 17.9927 7.5 17.5784 7.5Z" fill="#015EA5"/>
<path d="M17.5672 1.6665H2.4276C2.00573 1.6665 1.66406 2.00817 1.66406 2.43005V5.06859C1.66406 5.4915 2.00573 5.83317 2.4276 5.83317H17.5661C17.9891 5.83317 18.3307 5.4915 18.3307 5.06963V2.43005C18.3307 2.00817 17.9891 1.6665 17.5672 1.6665Z" fill="#D1BCE3"/>
</svg>
