<svg width="20" height="20" viewBox="0 0 20 20" fill="none" xmlns="http://www.w3.org/2000/svg">
<g clip-path="url(#clip0_12631_5477)">
<path d="M19.9963 15.3844C19.9963 17.9327 17.93 19.9997 15.381 19.9997C12.832 19.9997 10.7656 17.9327 10.7656 15.3844C10.7656 12.8361 12.832 10.769 15.381 10.769C17.93 10.769 19.9963 12.8361 19.9963 15.3844ZM18.0183 15.3844C18.0183 15.0198 17.7229 14.7251 17.359 14.7251H16.0403V13.4064C16.0403 13.0418 15.7449 12.747 15.381 12.747C15.017 12.747 14.7216 13.0418 14.7216 13.4064V15.3844C14.7216 15.749 15.017 16.0437 15.381 16.0437H17.359C17.7229 16.0437 18.0183 15.749 18.0183 15.3844Z" fill="#002448"/>
<path d="M16.9229 5.38477V9.56422C16.3111 9.34627 15.6537 9.23089 14.9703 9.23089C11.7419 9.23089 9.11235 11.8206 9.11235 15.0001C9.11235 15.6731 9.22951 16.3206 9.45081 16.9231H1.95265C0.878691 16.9231 0 16.0578 0 15.0001V5.38477H16.9229ZM5.85794 13.718C5.85794 13.3635 5.56635 13.077 5.20706 13.077H3.90529C3.54601 13.077 3.25441 13.3635 3.25441 13.718C3.25441 14.0725 3.54601 14.3591 3.90529 14.3591H5.20706C5.56635 14.3591 5.85794 14.0725 5.85794 13.718ZM5.85794 11.1539C5.85794 10.7995 5.56635 10.5129 5.20706 10.5129H3.90529C3.54601 10.5129 3.25441 10.7995 3.25441 11.1539C3.25441 11.5084 3.54601 11.795 3.90529 11.795H5.20706C5.56635 11.795 5.85794 11.5084 5.85794 11.1539ZM5.85794 8.58987C5.85794 8.23538 5.56635 7.94885 5.20706 7.94885H3.90529C3.54601 7.94885 3.25441 8.23538 3.25441 8.58987C3.25441 8.94435 3.54601 9.23089 3.90529 9.23089H5.20706C5.56635 9.23089 5.85794 8.94435 5.85794 8.58987ZM9.76324 8.58987C9.76324 8.23538 9.47164 7.94885 9.11235 7.94885H7.81059C7.4513 7.94885 7.15971 8.23538 7.15971 8.58987C7.15971 8.94435 7.4513 9.23089 7.81059 9.23089H9.11235C9.47164 9.23089 9.76324 8.94435 9.76324 8.58987Z" fill="#015EA5"/>
<path d="M16.9229 3.2051V3.84612H0V3.2051C0 2.14485 0.876088 1.28204 1.95265 1.28204H2.60353V0.64102C2.60353 0.286536 2.89512 0 3.25441 0C3.6137 0 3.90529 0.286536 3.90529 0.64102V1.28204H7.81059V0.64102C7.81059 0.286536 8.10218 0 8.46147 0C8.82076 0 9.11235 0.286536 9.11235 0.64102V1.28204H13.0176V0.64102C13.0176 0.286536 13.3092 0 13.6685 0C14.0278 0 14.3194 0.286536 14.3194 0.64102V1.28204H14.9703C16.0469 1.28204 16.9229 2.14485 16.9229 3.2051Z" fill="#00BAEB"/>
</g>
<defs>
<clipPath id="clip0_12631_5477">
<rect width="20" height="20" fill="white"/>
</clipPath>
</defs>
</svg>
