<svg width="14" height="14" viewBox="0 0 14 14" fill="none" xmlns="http://www.w3.org/2000/svg">
<path d="M0.842238 3.8902C0.646913 3.94601 0.469545 4.05186 0.327685 4.19726C0.185826 4.34267 0.0843913 4.52259 0.0334185 4.71923C-0.0175542 4.91588 -0.0162984 5.12242 0.0370618 5.31843C0.090422 5.51444 0.194037 5.69311 0.337654 5.83678L2.32799 7.82478V11.6666H6.1739L8.17765 13.6674C8.2852 13.7759 8.41313 13.8621 8.55408 13.9209C8.69504 13.9798 8.84624 14.0102 8.99899 14.0104C9.09938 14.0102 9.19935 13.9973 9.29649 13.9719C9.49305 13.9224 9.6731 13.822 9.81851 13.6808C9.96393 13.5396 10.0696 13.3626 10.1248 13.1675L13.9947 0.012207L0.842238 3.8902ZM1.16657 5.01195L11.0996 2.08362L3.49582 9.67511V7.34178L1.16657 5.01195ZM9.00657 12.8426L6.65749 10.4999H4.32415L11.9267 2.90379L9.00657 12.8426Z" fill="#002448"/>
</svg>
