<svg width="26" height="20" viewBox="0 0 26 20" fill="none" xmlns="http://www.w3.org/2000/svg">
<path d="M3.37143 19.7688C2.72381 20.1541 2.11429 20.0578 1.54286 19.4798C1.00952 18.8632 1.00952 18.3044 1.54286 17.8035C2.7619 16.5318 3.6 15.5877 4.05714 14.9711C4.51429 14.316 4.7619 13.6031 4.8 12.8324C4.91429 11.9846 4.68571 11.5607 4.11429 11.5607C2.97143 11.5607 2 11.0597 1.2 10.0578C0.4 9.05588 0 7.76493 0 6.18497C0 4.33526 0.514286 2.85164 1.54286 1.7341C2.60952 0.578034 4.01905 0 5.77143 0C7.44762 0 8.87619 0.635838 10.0571 1.90751C11.2381 3.17919 11.8286 4.87476 11.8286 6.99422C11.8286 12.0039 9.00952 16.262 3.37143 19.7688ZM17.5429 19.7688C16.8952 20.1541 16.2857 20.0578 15.7143 19.4798C15.181 18.9017 15.181 18.343 15.7143 17.8035C16.9333 16.5318 17.7714 15.5877 18.2286 14.9711C18.6857 14.316 18.9524 13.6031 19.0286 12.8324C19.1048 11.9846 18.8571 11.5607 18.2857 11.5607C17.1429 11.5607 16.1714 11.0597 15.3714 10.0578C14.5714 9.01734 14.1714 7.7264 14.1714 6.18497C14.1714 4.33526 14.6857 2.85164 15.7143 1.7341C16.781 0.578034 18.1905 0 19.9429 0C21.619 0 23.0476 0.635838 24.2286 1.90751C25.4095 3.17919 26 4.87476 26 6.99422C26 12.0039 23.181 16.262 17.5429 19.7688Z" fill="#015EA5"/>
</svg>
